Input #0, mov,mp4,m4a,3gp,3g2,mj2, from '/home/hbattu/projects/huberman-gpt/huberman-audio/mp3/tmpoy5r68j9.mp4':
  Metadata:
    major_brand     : dash
    minor_version   : 0
    compatible_brands: iso6mp41
    creation_time   : 2023-01-31T19:33:07.000000Z
  Duration: 02:35:04.72, start: 0.000000, bitrate: 129 kb/s
    Stream #0:0(eng): Audio: aac (LC) (mp4a / 0x6134706D), 44100 Hz, stereo, fltp, 0 kb/s (default)
    Metadata:
      creation_time   : 2023-01-31T19:33:07.000000Z
      handler_name    : ISO Media file produced by Google Inc.
Stream mapping:
  Stream #0:0 -> #0:0 (aac (native) -> mp3 (libmp3lame))
Press [q] to stop, [?] for help
[graph_0_in_0_0 @ 0x556fff9080c0] tb:1/44100 samplefmt:fltp samplerate:44100 chlayout:0x3
Output #0, mp3, to '../huberman-audio/mp3/GVRDGQhoEYQ.mp3':
  Metadata:
    major_brand     : dash
    minor_version   : 0
    compatible_brands: iso6mp41
    TSSE            : Lavf58.29.100
    Stream #0:0(eng): Audio: mp3 (libmp3lame), 44100 Hz, stereo, fltp, delay 1105 (default)
    Metadata:
      creation_time   : 2023-01-31T19:33:07.000000Z
      handler_name    : ISO Media file produced by Google Inc.
      encoder         : Lavc58.54.100 libmp3lame
No more output streams to write to, finishing.
size=  145387kB time=02:35:04.73 bitrate= 128.0kbits/s speed=96.3x    
[AVIOContext @ 0x556fff7f3900] Statistics: 0 seeks, 194 writeouts
video:0kB audio:145387kB subtitle:0kB other streams:0kB global headers:0kB muxing overhead: 0.000232%
Input file #0 (/home/hbattu/projects/huberman-gpt/huberman-audio/mp3/tmpoy5r68j9.mp4):
  Input stream #0:0 (audio): 400721 packets read (148875575 bytes); 400721 frames decoded (410338304 samples); 
  Total: 400721 packets (148875575 bytes) demuxed
Output file #0 (../huberman-audio/mp3/GVRDGQhoEYQ.mp3):
  Output stream #0:0 (audio): 356197 frames encoded (410338304 samples); 356198 packets muxed (148876225 bytes); 
  Total: 356198 packets (148876225 bytes) muxed
[AVIOContext @ 0x556fff81c6c0] Statistics: 2 seeks, 569 writeouts
[AVIOContext @ 0x556fff7fc880] Statistics: 150587235 bytes read, 0 seeks
